<svg width="32" height="28" viewBox="0 0 32 28" fill="currentcolor" xmlns="http://www.w3.org/2000/svg">
<path d="M31.5 24H30.5V20.5C30.5 20.3674 30.4473 20.2402 30.3536 20.1465C30.2598 20.0527 30.1326 20 30 20H29.1C28.0798 19.9999 27.0637 19.8695 26.0765 19.612L19.8835 17.9965C19.1516 17.805 18.3774 17.8562 17.6771 18.1424C16.9768 18.4286 16.3883 18.9343 16 19.5835C15.6117 18.9343 15.0232 18.4286 14.3229 18.1424C13.6226 17.8562 12.8484 17.805 12.1165 17.9965L5.9225 19.612C4.93563 19.8695 3.91991 19.9999 2.9 20H2C1.86739 20 1.74021 20.0527 1.64645 20.1465C1.55268 20.2402 1.5 20.3674 1.5 20.5V22.5C1.5 22.6326 1.55268 22.7598 1.64645 22.8536C1.74021 22.9473 1.86739 23 2 23C2.13261 23 2.25979 22.9473 2.35355 22.8536C2.44732 22.7598 2.5 22.6326 2.5 22.5V21H2.9C4.00525 20.9999 5.10597 20.8587 6.1755 20.58L12.369 18.964C12.7387 18.8676 13.1256 18.8572 13.4999 18.9336C13.8743 19.01 14.2261 19.1711 14.5285 19.4047C14.8308 19.6383 15.0756 19.9381 15.244 20.281C15.4124 20.624 15.5 21.0009 15.5 21.383V22.5C15.5 22.6326 15.5527 22.7598 15.6464 22.8536C15.7402 22.9473 15.8674 23 16 23C16.1326 23 16.2598 22.9473 16.3536 22.8536C16.4473 22.7598 16.5 22.6326 16.5 22.5V21.383C16.5 21.0009 16.5876 20.6238 16.756 20.2809C16.9245 19.9379 17.1693 19.6381 17.4717 19.4045C17.7741 19.1709 18.126 19.0097 18.5004 18.9334C18.8748 18.857 19.2618 18.8675 19.6315 18.964L25.8245 20.58C26.894 20.8587 27.9948 20.9998 29.1 21H29.5V24H0.5C0.367392 24 0.240215 24.0527 0.146447 24.1465C0.0526784 24.2402 0 24.3674 0 24.5L0 26.5C0 26.6326 0.0526784 26.7598 0.146447 26.8536C0.240215 26.9473 0.367392 27 0.5 27H14.2C14.3902 27.3061 14.6553 27.5587 14.9702 27.7338C15.2852 27.909 15.6396 28.0009 16 28.0009C16.3604 28.0009 16.7148 27.909 17.0298 27.7338C17.3447 27.5587 17.6098 27.3061 17.8 27H31.5C31.6326 27 31.7598 26.9473 31.8536 26.8536C31.9473 26.7598 32 26.6326 32 26.5V24.5C32 24.3674 31.9473 24.2402 31.8536 24.1465C31.7598 24.0527 31.6326 24 31.5 24ZM31 26H17.5C17.4067 25.9995 17.315 26.0251 17.2355 26.074C17.156 26.1229 17.0917 26.193 17.05 26.2765L17 26.382C16.9072 26.5677 16.7644 26.7239 16.5878 26.8331C16.4112 26.9423 16.2076 27.0001 16 27.0001C15.7924 27.0001 15.5888 26.9423 15.4122 26.8331C15.2356 26.7239 15.0928 26.5677 15 26.382L14.9475 26.2765C14.906 26.1934 14.8421 26.1235 14.7631 26.0746C14.684 26.0258 14.5929 26 14.5 26H1V25H31V26ZM10.5 14C11.8845 14 13.2378 13.5895 14.389 12.8203C15.5401 12.0511 16.4373 10.9579 16.9672 9.67879C17.497 8.3997 17.6356 6.99224 17.3655 5.63437C17.0954 4.2765 16.4287 3.02922 15.4497 2.05026C14.4708 1.07129 13.2235 0.404603 11.8656 0.134506C10.5078 -0.13559 9.1003 0.00303298 7.82122 0.532846C6.54213 1.06266 5.44888 1.95987 4.67971 3.11101C3.91054 4.26216 3.5 5.61553 3.5 7C3.50199 8.85591 4.24012 10.6352 5.55245 11.9476C6.86477 13.2599 8.64409 13.998 10.5 14ZM10.5 1C11.6867 1 12.8467 1.3519 13.8334 2.01119C14.8201 2.67047 15.5892 3.60755 16.0433 4.7039C16.4974 5.80026 16.6162 7.00666 16.3847 8.17054C16.1532 9.33443 15.5818 10.4035 14.7426 11.2426C13.9035 12.0818 12.8344 12.6532 11.6705 12.8847C10.5067 13.1162 9.30026 12.9974 8.2039 12.5433C7.10754 12.0892 6.17047 11.3201 5.51118 10.3334C4.85189 9.34673 4.5 8.18669 4.5 7C4.50172 5.40923 5.13441 3.88411 6.25926 2.75926C7.38411 1.63442 8.90923 1.00172 10.5 1Z" fill="#FFF1D5"/>
<path d="M10.5 11C11.5605 10.9988 12.5772 10.577 13.3271 9.82709C14.077 9.0772 14.4988 8.06048 14.5 6.99998C14.5 6.86737 14.4473 6.74019 14.3536 6.64642C14.2598 6.55265 14.1326 6.49998 14 6.49998C13.8674 6.49998 13.7402 6.55265 13.6464 6.64642C13.5527 6.74019 13.5 6.86737 13.5 6.99998C13.5 7.79563 13.1839 8.55869 12.6213 9.1213C12.0587 9.68391 11.2956 9.99998 10.5 9.99998C9.70435 9.99998 8.94129 9.68391 8.37868 9.1213C7.81607 8.55869 7.5 7.79563 7.5 6.99998C7.5 6.86737 7.44732 6.74019 7.35355 6.64642C7.25979 6.55265 7.13261 6.49998 7 6.49998C6.86739 6.49998 6.74021 6.55265 6.64645 6.64642C6.55268 6.74019 6.5 6.86737 6.5 6.99998C6.50119 8.06048 6.923 9.0772 7.67289 9.82709C8.42278 10.577 9.4395 10.9988 10.5 11ZM18.6125 4.24098C19.626 3.6832 20.7792 3.43033 21.9331 3.51282C23.0871 3.59531 24.1925 4.00963 25.1164 4.7059C26.0403 5.40216 26.7432 6.35068 27.1405 7.43721C27.5377 8.52374 27.6124 9.70194 27.3555 10.8299C27.0986 11.9579 26.5211 12.9876 25.6925 13.7949C24.8639 14.6023 23.8196 15.1529 22.6853 15.3804C21.551 15.6079 20.3752 15.5026 19.2993 15.0773C18.2235 14.6519 17.2935 13.9246 16.6215 12.983C16.5439 12.8764 16.4273 12.8047 16.2972 12.7837C16.167 12.7626 16.0338 12.7938 15.9265 12.8705C15.8192 12.9472 15.7466 13.0631 15.7244 13.1931C15.7022 13.3231 15.7323 13.4565 15.808 13.5645C16.5922 14.6615 17.6768 15.5084 18.9312 16.0034C20.1855 16.4984 21.5562 16.6203 22.8782 16.3545C24.2002 16.0887 25.4173 15.4465 26.3828 14.5051C27.3484 13.5638 28.0213 12.3635 28.3207 11.0486C28.62 9.7338 28.5329 8.36047 28.07 7.09395C27.607 5.82743 26.7879 4.72168 25.7112 3.90981C24.6345 3.09794 23.3461 2.61454 22.0011 2.51779C20.6561 2.42104 19.3118 2.71506 18.13 3.36448C18.0725 3.39616 18.0218 3.43886 17.9807 3.49014C17.9397 3.54142 17.9092 3.60028 17.8909 3.66335C17.8727 3.72643 17.867 3.79248 17.8743 3.85775C17.8815 3.92301 17.9016 3.98621 17.9333 4.04373C17.9649 4.10125 18.0076 4.15196 18.0589 4.19298C18.1102 4.23399 18.1691 4.26451 18.2321 4.28278C18.2952 4.30105 18.3613 4.30672 18.4265 4.29946C18.4918 4.2922 18.555 4.27216 18.6125 4.24048V4.24098Z" fill="#FFF1D5"/>
<path d="M17.9695 12.8706C18.0342 12.8823 18.1006 12.8812 18.1648 12.8673C18.2291 12.8533 18.2899 12.8269 18.3439 12.7894C18.398 12.7519 18.4441 12.7042 18.4796 12.6488C18.5151 12.5935 18.5394 12.5318 18.551 12.4671C18.6752 11.7742 19.0394 11.1472 19.5797 10.6961C20.12 10.2449 20.8019 9.9984 21.5058 9.99977C22.2097 10.0011 22.8907 10.2503 23.4292 10.7036C23.9677 11.1568 24.3295 11.7852 24.451 12.4786C24.4715 12.5942 24.532 12.699 24.6219 12.7745C24.7119 12.85 24.8256 12.8915 24.943 12.8916C24.9723 12.8915 25.0016 12.889 25.0305 12.8841C25.1611 12.8609 25.2771 12.7868 25.353 12.6782C25.429 12.5695 25.4586 12.4351 25.4355 12.3046C25.2732 11.38 24.7906 10.5421 24.0724 9.93773C23.3541 9.33338 22.446 9.00119 21.5073 8.9994C20.5686 8.99761 19.6592 9.32634 18.9387 9.92794C18.2181 10.5295 17.7323 11.3656 17.5665 12.2896C17.5429 12.42 17.5721 12.5546 17.6477 12.6635C17.7233 12.7725 17.839 12.8469 17.9695 12.8706Z" fill="currentColor"/>
</svg>
