<svg width="25" height="25" viewBox="0 0 25 25" fill="currentcolor" xmlns="http://www.w3.org/2000/svg">
<g clip-path="url(#clip0_196_758)">
<path fill-rule="evenodd" clip-rule="evenodd" d="M12.5002 12.5C9.72891 12.5 7.47641 10.2575 7.47641 7.49998C7.47641 4.74248 9.72891 2.49998 12.5002 2.49998C15.2714 2.49998 17.5239 4.74248 17.5239 7.49998C17.5239 10.2575 15.2714 12.5 12.5002 12.5ZM17.2202 13.3412C18.253 12.5188 19.0495 11.4374 19.5286 10.2072C20.0077 8.97695 20.1523 7.64171 19.9476 6.33741C19.4514 3.05866 16.7114 0.434971 13.4027 0.0524711C8.83766 -0.476279 4.96516 3.06123 4.96516 7.49998C4.96516 9.86248 6.06515 11.9674 7.78015 13.3412C3.56515 14.9174 0.487653 18.6187 0.00515309 23.6137C-0.011717 23.7889 0.00815811 23.9658 0.0634989 24.1328C0.11884 24.2999 0.208433 24.4536 0.326551 24.584C0.444668 24.7145 0.588709 24.8188 0.749467 24.8904C0.910226 24.9621 1.08417 24.9994 1.26016 25C1.56865 25.0025 1.86694 24.8897 2.09656 24.6837C2.32618 24.4776 2.47056 24.1932 2.50141 23.8862C3.00516 18.3075 7.29641 15 12.5002 15C17.7039 15 21.9951 18.3075 22.4989 23.8862C22.5297 24.1932 22.6741 24.4776 22.9038 24.6837C23.1334 24.8897 23.4317 25.0025 23.7402 25C24.4852 25 25.0651 24.3525 24.9939 23.6137C24.5126 18.6187 21.4351 14.9174 17.2189 13.3412" fill="currentcolor"/>
</g>
<defs>
<clipPath id="clip0_196_758">
<rect width="25" height="25" fill="currentcolor"/>
</clipPath>
</defs>
</svg>
